<svg width="34" height="34" viewBox="34 34" fill="none" xmlns="http://www.w3.org/2000/svg">
<path d="M8.47947 0.0804596C1.12311 0.214848 1.06695 0.214848 0.533476 0.859909C0.0280777 1.45122 0 2.09628 0 15.1319V28.7857L0.870409 29.4846C1.40389 29.9146 2.07775 30.1834 2.6393 30.1834C3.50971 30.1834 3.59395 30.2371 3.73433 31.2854C3.81857 31.9842 4.18358 32.683 4.68898 33.1937L5.47515 34L15.3866 33.8925C27.3477 33.7312 26.5054 34.0269 26.7861 29.9684C26.9546 27.4687 27.0388 18.9754 26.9827 9.97142C26.9546 5.85914 26.9265 5.75163 26.2246 4.9453C25.6349 4.24649 25.298 4.1121 24.2872 4.1121H23.108L22.9395 2.87573C22.771 1.42434 21.9287 0.429867 20.6652 0.214848C19.2332 -0.02705 16.2851 -0.0539284 8.47947 0.0804596ZM20.7213 15.0782L20.6371 28.1676H11.2311H1.82505L1.74082 15.0782L1.68466 1.98877L5.81208 1.90813C8.11446 1.85438 12.4103 1.85438 15.3866 1.90813L20.7775 1.98877L20.7213 15.0782Z" fill="white"/>
<path d="M3.00441 3.22512C2.89209 3.30576 2.80786 3.62829 2.80786 3.89706C2.80786 4.3271 3.11672 4.38086 6.42989 4.38086C10.1081 4.38086 10.7819 4.21959 10.1081 3.44014C9.82729 3.11761 9.01303 3.03698 6.45796 3.03698C4.66099 3.03698 3.08864 3.11761 3.00441 3.22512Z" fill="white"/>
<path d="M3.08869 5.85936C2.35867 6.71944 2.9483 7.06885 5.13836 7.06885C7.46881 7.06885 8.14268 6.71944 7.38458 5.93999C6.79495 5.29493 3.62217 5.24117 3.08869 5.85936Z" fill="white"/>
<path d="M14.1512 7.9556C13.5335 8.57379 11.7927 10.509 10.2765 12.256C7.80566 15.0513 7.38449 15.4007 6.59831 15.4007C5.50328 15.4007 4.49249 16.3683 4.49249 17.3896C4.49249 17.8466 4.15555 18.5185 3.65016 19.0829C2.52705 20.2924 2.55513 21.2331 3.73439 22.3351C4.91365 23.4371 5.86829 23.4371 7.10371 22.3889C7.7495 21.8513 8.36721 21.5826 8.95684 21.5826C10.108 21.5826 11.0065 20.7225 10.8942 19.7011C10.838 19.0292 11.2592 18.5723 15.162 15.3469L19.5141 11.7722L19.5983 9.51451C19.6544 7.87497 19.5702 7.17615 19.3175 7.04177C19.121 6.90738 18.1102 6.79987 17.0994 6.79987C15.2462 6.79987 15.2182 6.82674 14.1512 7.9556ZM8.11451 18.4647C9.54647 19.8624 9.68686 20.4806 8.42337 20.1043C7.7495 19.8893 5.55944 17.5778 5.78406 17.2553C6.09292 16.7715 6.65447 17.0671 8.11451 18.4647ZM6.26138 21.0988C5.67175 21.7169 4.66095 21.6363 4.54864 20.9644C4.49249 20.6956 4.66095 20.2387 4.94173 19.943C5.41905 19.4323 5.44713 19.4323 6.09292 20.0237C6.71063 20.5612 6.71063 20.615 6.26138 21.0988Z" fill="white"/>
<path d="M15.1621 23.3296C14.4321 24.1897 15.0217 24.5391 17.2679 24.5391C18.8964 24.5391 19.4299 24.4584 19.5422 24.1359C19.8791 23.3296 19.121 22.9264 17.2679 22.9264C16.0606 22.9264 15.4148 23.0608 15.1621 23.3296Z" fill="white"/>
</svg>
