<svg width="34" height="34" viewBox="34 34" fill="none" xmlns="http://www.w3.org/2000/svg">
<path d="M8.47947 0.0804596C1.12311 0.214848 1.06695 0.214848 0.533476 0.859909C0.0280777 1.45122 0 2.09628 0 15.1319V28.7857L0.870409 29.4846C1.40389 29.9146 2.07775 30.1834 2.6393 30.1834C3.50971 30.1834 3.59395 30.2371 3.73433 31.2854C3.81857 31.9842 4.18358 32.683 4.68898 33.1937L5.47515 34L15.3866 33.8925C27.3477 33.7312 26.5054 34.0269 26.7861 29.9684C26.9546 27.4687 27.0388 18.9754 26.9827 9.97142C26.9546 5.85914 26.9265 5.75163 26.2246 4.9453C25.6349 4.24649 25.298 4.1121 24.2872 4.1121H23.108L22.9395 2.87573C22.771 1.42434 21.9287 0.429867 20.6652 0.214848C19.2332 -0.02705 16.2851 -0.0539284 8.47947 0.0804596ZM20.7213 15.0782L20.6371 28.1676H11.2311H1.82505L1.74082 15.0782L1.68466 1.98877L5.81208 1.90813C8.11446 1.85438 12.4103 1.85438 15.3866 1.90813L20.7775 1.98877L20.7213 15.0782Z" fill="black"/>
<path d="M3.00434 3.22512C2.89203 3.30576 2.8078 3.62829 2.8078 3.89706C2.8078 4.3271 3.11666 4.38086 6.42982 4.38086C10.108 4.38086 10.7819 4.21959 10.108 3.44014C9.82723 3.11761 9.01297 3.03698 6.4579 3.03698C4.66093 3.03698 3.08858 3.11761 3.00434 3.22512Z" fill="black"/>
<path d="M3.08863 5.85911C2.35861 6.71919 2.94824 7.0686 5.1383 7.0686C7.46875 7.0686 8.14262 6.71919 7.38452 5.93974C6.79489 5.29468 3.62211 5.24093 3.08863 5.85911Z" fill="black"/>
<path d="M14.1512 7.9556C13.5334 8.57379 11.7926 10.509 10.2764 12.256C7.80559 15.0513 7.38443 15.4007 6.59825 15.4007C5.50322 15.4007 4.49243 16.3683 4.49243 17.3896C4.49243 17.8466 4.15549 18.5185 3.65009 19.0829C2.52699 20.2924 2.55506 21.2331 3.73433 22.3351C4.91359 23.4371 5.86823 23.4371 7.10365 22.3889C7.74944 21.8513 8.36715 21.5826 8.95678 21.5826C10.108 21.5826 11.0065 20.7225 10.8941 19.7011C10.838 19.0292 11.2592 18.5723 15.162 15.3469L19.514 11.7722L19.5982 9.51451C19.6544 7.87497 19.5702 7.17615 19.3175 7.04177C19.1209 6.90738 18.1101 6.79987 17.0993 6.79987C15.2462 6.79987 15.2181 6.82674 14.1512 7.9556ZM8.11445 18.4647C9.54641 19.8624 9.6868 20.4806 8.4233 20.1043C7.74944 19.8893 5.55938 17.5778 5.784 17.2553C6.09285 16.7715 6.65441 17.0671 8.11445 18.4647ZM6.26132 21.0988C5.67169 21.7169 4.66089 21.6363 4.54858 20.9644C4.49243 20.6956 4.66089 20.2387 4.94167 19.943C5.41899 19.4323 5.44707 19.4323 6.09285 20.0237C6.71056 20.5612 6.71056 20.615 6.26132 21.0988Z" fill="black"/>
<path d="M15.162 23.3296C14.432 24.1897 15.0216 24.5391 17.2678 24.5391C18.8963 24.5391 19.4298 24.4584 19.5421 24.1359C19.8791 23.3296 19.121 22.9264 17.2678 22.9264C16.0605 22.9264 15.4147 23.0608 15.162 23.3296Z" fill="black"/>
</svg>
